<svg xmlns="http://www.w3.org/2000/svg" viewBox="0 0 200 560" width="200" height="560">
  <!-- SASHA "The Fierce One" — simple geometric Bratz style -->
  <!-- Skin:#8B5E3C  Eyes:#784212  Lips:#C8956C  Hair:#2C1810 massive afro -->

  <!-- GROUND SHADOW -->
  <ellipse cx="100" cy="548" rx="45" ry="8" fill="rgba(0,0,0,0.2)"/>

  <!-- 1. HAIR BACK — massive afro (drawn first, widest element) -->
  <ellipse cx="100" cy="110" rx="88" ry="85" fill="#2C1810" stroke="#1a0a04" stroke-width="2"/>
  <!-- Afro texture bumps on silhouette -->
  <circle cx="28" cy="95" r="10" fill="#2C1810" stroke="#1a0a04" stroke-width="1.5"/>
  <circle cx="20" cy="115" r="9" fill="#2C1810" stroke="#1a0a04" stroke-width="1.5"/>
  <circle cx="24" cy="138" r="8" fill="#2C1810" stroke="#1a0a04" stroke-width="1.5"/>
  <circle cx="35" cy="58" r="10" fill="#2C1810" stroke="#1a0a04" stroke-width="1.5"/>
  <circle cx="55" cy="32" r="11" fill="#2C1810" stroke="#1a0a04" stroke-width="1.5"/>
  <circle cx="80" cy="22" r="10" fill="#2C1810" stroke="#1a0a04" stroke-width="1.5"/>
  <circle cx="100" cy="20" r="11" fill="#2C1810" stroke="#1a0a04" stroke-width="1.5"/>
  <circle cx="120" cy="22" r="10" fill="#2C1810" stroke="#1a0a04" stroke-width="1.5"/>
  <circle cx="145" cy="32" r="11" fill="#2C1810" stroke="#1a0a04" stroke-width="1.5"/>
  <circle cx="165" cy="58" r="10" fill="#2C1810" stroke="#1a0a04" stroke-width="1.5"/>
  <circle cx="172" cy="95" r="10" fill="#2C1810" stroke="#1a0a04" stroke-width="1.5"/>
  <circle cx="178" cy="118" r="9" fill="#2C1810" stroke="#1a0a04" stroke-width="1.5"/>
  <circle cx="174" cy="140" r="8" fill="#2C1810" stroke="#1a0a04" stroke-width="1.5"/>
  <!-- Afro highlight (sheen on left side) -->
  <ellipse cx="80" cy="85" rx="25" ry="20" fill="#4A2818" opacity="0.6"/>

  <!-- 2. LEGS -->
  <rect x="80" y="340" width="18" height="170" rx="9" fill="#8B5E3C" stroke="#111" stroke-width="2"/>
  <rect x="102" y="340" width="18" height="170" rx="9" fill="#8B5E3C" stroke="#111" stroke-width="2"/>

  <!-- 3. FEET -->
  <ellipse cx="87" cy="516" rx="18" ry="9" fill="#8B5E3C" stroke="#111" stroke-width="2"/>
  <ellipse cx="113" cy="516" rx="18" ry="9" fill="#8B5E3C" stroke="#111" stroke-width="2"/>

  <!-- 4. BODY TORSO -->
  <path d="M75 220 Q70 250 72 290 Q80 320 100 325 Q120 320 128 290 Q130 250 125 220 Q115 215 100 214 Q85 215 75 220 Z" fill="#8B5E3C" stroke="#111" stroke-width="2.5"/>

  <!-- 5. ARMS -->
  <rect x="58" y="222" width="16" height="85" rx="8" fill="#8B5E3C" stroke="#111" stroke-width="2" transform="rotate(-5 66 260)"/>
  <rect x="126" y="222" width="16" height="85" rx="8" fill="#8B5E3C" stroke="#111" stroke-width="2" transform="rotate(5 134 260)"/>

  <!-- 6. SHORTS (sporty/fierce style) -->
  <path d="M72 290 Q70 316 70 345 Q80 350 100 351 Q120 350 130 345 Q130 316 128 290 Q119 302 100 303 Q81 302 72 290 Z" fill="#E74C3C" stroke="#C0392B" stroke-width="1.5"/>
  <!-- Shorts side stripe -->
  <path d="M72 292 Q71 320 70 345" fill="none" stroke="#F39C12" stroke-width="3" stroke-linecap="round"/>
  <path d="M128 292 Q129 320 130 345" fill="none" stroke="#F39C12" stroke-width="3" stroke-linecap="round"/>
  <!-- Shorts hem -->
  <path d="M70 345 Q80 352 100 353 Q120 352 130 345" fill="none" stroke="#C0392B" stroke-width="2"/>

  <!-- 7. CROP TOP — bold red/gold athletic style -->
  <path d="M75 220 Q70 252 72 272 Q80 282 100 283 Q120 282 128 272 Q130 252 125 220 Q115 215 100 214 Q85 215 75 220 Z" fill="#E74C3C" stroke="#C0392B" stroke-width="1.5"/>
  <!-- Athletic side stripes -->
  <path d="M76 222 Q74 252 74 270" fill="none" stroke="#F39C12" stroke-width="3" stroke-linecap="round"/>
  <path d="M124 222 Q126 252 126 270" fill="none" stroke="#F39C12" stroke-width="3" stroke-linecap="round"/>
  <!-- Gold star detail center -->
  <path d="M100 235 L102 242 L109 242 L103 247 L105 254 L100 249 L95 254 L97 247 L91 242 L98 242 Z" fill="#F39C12"/>
  <!-- Neckline -->
  <path d="M82 218 Q100 213 118 218" fill="none" stroke="#C0392B" stroke-width="2"/>

  <!-- 8. NECK -->
  <rect x="91" y="200" width="18" height="24" rx="7" fill="#8B5E3C" stroke="#111" stroke-width="2"/>

  <!-- 9. HEAD -->
  <ellipse cx="100" cy="145" rx="68" ry="72" fill="#8B5E3C" stroke="#111" stroke-width="2.5"/>

  <!-- 10. CHEEKS -->
  <ellipse cx="72" cy="168" rx="14" ry="8" fill="#FFB6C1" opacity="0.4"/>
  <ellipse cx="128" cy="168" rx="14" ry="8" fill="#FFB6C1" opacity="0.4"/>

  <!-- 11. EYEBROWS — bold, expressive -->
  <path d="M73 138 Q82 131 91 135" fill="none" stroke="#1a0a04" stroke-width="3" stroke-linecap="round"/>
  <path d="M109 135 Q118 131 127 138" fill="none" stroke="#1a0a04" stroke-width="3" stroke-linecap="round"/>

  <!-- 12. EYES — LEFT -->
  <ellipse cx="83" cy="155" rx="16" ry="13" fill="white" stroke="#111" stroke-width="2"/>
  <ellipse cx="83" cy="157" rx="11" ry="11" fill="#784212"/>
  <circle cx="83" cy="157" r="5" fill="#1a1a1a"/>
  <circle cx="87" cy="153" r="3" fill="white"/>
  <path d="M67 148 Q75 140 83 142 Q91 140 99 148 Q93 143 83 144 Q73 143 67 148 Z" fill="#111"/>
  <path d="M97 146 Q103 140 106 144 Q105 147 99 149 Z" fill="#111"/>

  <!-- 12. EYES — RIGHT -->
  <ellipse cx="117" cy="155" rx="16" ry="13" fill="white" stroke="#111" stroke-width="2"/>
  <ellipse cx="117" cy="157" rx="11" ry="11" fill="#784212"/>
  <circle cx="117" cy="157" r="5" fill="#1a1a1a"/>
  <circle cx="121" cy="153" r="3" fill="white"/>
  <path d="M101 148 Q109 140 117 142 Q125 140 133 148 Q127 143 117 144 Q107 143 101 148 Z" fill="#111"/>
  <path d="M131 146 Q137 140 140 144 Q139 147 133 149 Z" fill="#111"/>

  <!-- 13. NOSE -->
  <path d="M96 170 Q100 174 104 170" fill="none" stroke="#5C3A1E" stroke-width="1.5" stroke-linecap="round"/>

  <!-- 14. LIPS -->
  <path d="M86 182 Q90 178 100 180 Q110 178 114 182 Q108 183 100 184 Q92 183 86 182 Z" fill="#C8956C" stroke="#111" stroke-width="1.5"/>
  <path d="M86 182 Q88 192 100 194 Q112 192 114 182 Q108 183 100 184 Q92 183 86 182 Z" fill="#C8956C" stroke="#111" stroke-width="1.5"/>
  <ellipse cx="100" cy="188" rx="7" ry="3" fill="white" opacity="0.5"/>

  <!-- 15. HAIR FRONT — afro front volume over forehead -->
  <!-- No straight hair front layer needed — afro ellipse already dominates -->
  <!-- Small front wisps at hairline -->
  <path d="M52 140 Q48 155 50 168 Q54 160 56 148 Z" fill="#2C1810"/>
  <path d="M148 140 Q152 155 150 168 Q146 160 144 148 Z" fill="#2C1810"/>
  <!-- Afro bottom fringe over temples -->
  <ellipse cx="47" cy="152" rx="12" ry="8" fill="#2C1810"/>
  <ellipse cx="153" cy="152" rx="12" ry="8" fill="#2C1810"/>

  <!-- 16. SHOES — sporty sneakers in red/gold -->
  <!-- Left sneaker -->
  <rect x="71" y="506" width="30" height="16" rx="6" fill="#E74C3C" stroke="#C0392B" stroke-width="2"/>
  <ellipse cx="87" cy="516" rx="18" ry="7" fill="#E74C3C" stroke="#C0392B" stroke-width="2"/>
  <!-- Sneaker sole -->
  <path d="M71 516 Q87 521 105 516" fill="none" stroke="#F39C12" stroke-width="2.5"/>
  <!-- Lace line -->
  <path d="M76 510 L100 510" fill="none" stroke="white" stroke-width="1.5"/>
  <!-- Right sneaker -->
  <rect x="99" y="506" width="30" height="16" rx="6" fill="#E74C3C" stroke="#C0392B" stroke-width="2"/>
  <ellipse cx="113" cy="516" rx="18" ry="7" fill="#E74C3C" stroke="#C0392B" stroke-width="2"/>
  <path d="M95 516 Q113 521 131 516" fill="none" stroke="#F39C12" stroke-width="2.5"/>
  <path d="M102 510 L126 510" fill="none" stroke="white" stroke-width="1.5"/>

</svg>
